<?xml version="1.0" encoding="utf-8"?>
<!-- Generator: Adobe Illustrator 21.0.0, SVG Export Plug-In . SVG Version: 6.00 Build 0)  -->
<svg version="1.1" id="图层_1" xmlns="http://www.w3.org/2000/svg" xmlns:xlink="http://www.w3.org/1999/xlink" x="0px" y="0px"
	 viewBox="0 0 210 60" style="enable-background:new 0 0 210 60;" xml:space="preserve">
<style type="text/css">
	.st0{fill:#0068B7;}
	.st1{fill-rule:evenodd;clip-rule:evenodd;fill:#0068B7;}
</style>
<path class="st0" d="M126.5,47.2l0.1,0.1c0.3,0.1,1.1,0.2,2.4,0.2h5.5c0.9,0.1,1.6,0,2.1-0.2c0-0.1,0.1-0.1,0.1-0.1v1.9h-0.2
	c-0.5-0.1-1.1-0.2-2-0.2h-2.2V52h2.8c1.2,0,1.9,0,2.1-0.1c0.1-0.1,0.2-0.1,0.2-0.1v1.7h-0.2c-0.7-0.1-1.4-0.2-2.2-0.2h-2.7v4h4.6
	c1.3,0,2.1,0,2.3-0.1c0.1-0.1,0.2-0.1,0.3-0.1V59c-0.1-0.1-0.2-0.1-0.4-0.1c-0.2-0.1-0.9-0.1-2.2-0.1h-10.3c-1.3,0-2.1,0-2.5,0.1
	l-0.3,0.1v-1.8l0.1,0.1c0.4,0.1,1.2,0.1,2.6,0.1h4.2v-3.9h-2.4c-0.9,0.1-1.7,0.1-2.3,0.2h-0.2v-1.8l0.1,0.1c0.4,0.1,1.2,0.1,2.4,0.1
	h2.4v-3.1H129c-0.8,0.1-1.6,0.1-2.4,0.2h-0.2V47.2z M132.3,41.2c0.2,0.8,0.4,1.6,0.5,2.5h4.7c0.9,0,1.5-0.1,1.9-0.2
	c-0.1,0.4-0.1,1.1-0.1,2.2c0,1,0,1.7,0.1,2l0.1,0.1h-1.9c0-0.3,0.1-0.6,0.1-1.1c0-0.4,0-0.9,0.1-1.5h-12v2.2l0.1,0.3H124v-0.2
	c0.1-0.5,0.1-1.2,0.1-1.9c0-0.8,0-1.5-0.1-2.1c0.3,0.1,1,0.2,2,0.2h5c-0.2-0.7-0.4-1.4-0.6-2.2L132.3,41.2z M135.1,54
	c0.5,0.4,1.1,1.1,1.7,2l-1.5,1.1c-0.4-0.7-0.9-1.4-1.5-2.2L135.1,54z"/>
<path class="st0" d="M144,45.2h0.9c0.9,0.1,1.7,0,2.5-0.1c0.1,0.1,0.1,0.1,0.1,0.2c-0.9,2-1.6,3.4-2.1,4.3v0.9l1.1-0.7
	c0.4,0.8,0.9,1.7,1.5,2.7l-1.4,0.9c-0.4-1.3-0.8-2.1-1.2-2.6v5.9c0,1.4,0.1,2.4,0.1,3.1h-1.7v-1.4c0.1-0.7,0.1-1.3,0.1-1.7v-5.2
	c-0.7,1.2-1.4,2.1-2.2,2.9c-0.2-0.7-0.5-1.2-0.9-1.7c1.3-0.9,2.8-2.9,4.7-6H144c-1.1,0-1.9,0-2.2,0.1v-1.7c0.1,0.1,0.3,0.1,0.5,0.1
	C143,45.2,143.6,45.2,144,45.2 M145.4,40.9c0.2,0.5,0.4,1.1,0.7,1.8c0.2,0.4,0.4,0.8,0.5,1.2l-1.7,0.7c-0.3-1-0.7-2-1.1-3
	L145.4,40.9z M151.7,44.9c1.3,0.1,1.9,0.2,1.9,0.4c0,0.1-0.1,0.2-0.1,0.4c-0.1,0.3-0.1,0.5-0.1,0.7c0,0.1-0.1,0.2-0.1,0.3
	c-0.2,2.2-0.4,3.9-0.6,5.2c1,0.1,1.4,0.2,1.4,0.4c0,0.1,0,0.2-0.1,0.3c-0.1,0.3-0.1,0.7-0.1,1.1v3.5c0,0.4,0.2,0.7,0.6,0.7
	c0.4,0,1,0,1.8-0.1c0.4-0.3,0.6-1,0.6-2.3c0.6,0.6,1.2,0.9,1.7,1c-0.3,1.6-0.7,2.5-1.4,2.6c-1,0.2-2.2,0.3-3.6,0.2
	c-0.8-0.1-1.2-0.4-1.1-1.2V53c-0.6,2.6-2.2,4.9-4.6,6.9c-0.4-0.6-1-1.1-1.7-1.4c3.1-1.3,5-4.1,5.5-8.2
	C151.8,48.3,151.8,46.5,151.7,44.9 M148.6,41.8c0.7,0.2,1.4,0.2,2,0.2h4c0.6,0.1,1.3,0,2.1-0.2c-0.1,0.7-0.1,1.4-0.1,1.9V51
	c0,0.9,0,1.6,0.1,2.1h-1.8c0-0.7,0.1-1.4,0.1-2.1v-7.4h-4.9v7c0,0.8,0,1.7,0.1,2.5h-1.8c0-0.9,0.1-1.7,0.1-2.4v-6.9
	C148.6,43.3,148.6,42.6,148.6,41.8"/>
<path class="st0" d="M163.1,40.7c1,0.4,1.7,0.7,1.9,0.9c0,0.1,0,0.1-0.1,0.2c-0.2,0.2-0.3,0.4-0.4,0.6c-0.4,1-0.8,1.9-1.2,2.6v11.7
	c0,1.6,0,2.7,0.1,3.2h-1.7c0-0.3,0.1-0.7,0.1-1.2c0-0.4,0.1-1.1,0.1-2v-8.9c-0.7,1.4-1.3,2.6-1.9,3.6c-0.3-0.6-0.7-1.1-1.2-1.6
	C160.7,47.8,162.1,44.7,163.1,40.7 M169,50c1.1,0.1,1.8,0.1,1.9,0.2c0,0.1-0.1,0.2-0.1,0.3c-0.2,0.3-0.3,0.6-0.2,1.1v1.1h2
	c0.8,0.1,1.5,0,2.1-0.2v1.8c-0.4-0.1-1.1-0.2-2.1-0.2h-2v3.1h2.4c1.5,0,2.4-0.1,2.8-0.2V59c-0.6-0.1-1.5-0.2-2.7-0.2h-5.5
	c-1.6-0.1-2.7,0-3.2,0.2v-1.8c0.4,0.2,1.5,0.2,3.1,0.2h1.8v-3h-1.7c-0.7,0.1-1.6,0.1-2.5,0.2v-1.9c1,0.1,1.8,0.2,2.5,0.2h1.7v-1.2
	C169.1,50.9,169.1,50.4,169,50 M169,40.9c1,0.1,1.6,0.2,1.8,0.3c0,0.1,0,0.1-0.1,0.2c-0.1,0.3-0.2,0.8-0.2,1.3V44h1.9
	c1.1,0.1,1.9,0,2.5-0.2v1.8c-0.7-0.1-1.5-0.2-2.4-0.2h-2.1v2.6h2.6c0.7,0.1,1.5,0,2.3-0.2l0.1-0.1v1.8c-0.5-0.1-1.2-0.1-2.3-0.2
	h-6.2c-0.9,0-1.5,0-1.8,0.1c-0.4,0-0.7,0-0.9,0.1v-1.7c0.1,0,0.3,0,0.6,0.1c0.4,0.1,1.1,0.1,2,0.1h2.1v-2.6h-1.8
	c-1.1,0.1-2,0.1-2.4,0.2v-1.8c0,0.1,0,0.1,0.1,0.1c0.6,0.1,1.3,0.1,2.2,0.1h1.9v-1.1c0-0.7,0-1.2-0.1-1.3V40.9z"/>
<path class="st1" d="M55.2,11.4h11.5c1.9,0,3.4,0.5,4.4,1.6c1,1,1.5,2.3,1.5,3.8c0,1.3-0.4,2.4-1.1,3.3c-0.5,0.6-1.2,1.1-2.1,1.5
	c1.4,0.4,2.5,1,3.1,1.9c0.7,0.9,1,2.1,1,3.4c0,1.1-0.2,2.1-0.7,3c-0.5,0.9-1.1,1.6-2,2.1c-0.5,0.3-1.3,0.6-2.3,0.7
	c-1.4,0.2-2.3,0.3-2.7,0.3H55.2V11.4z M181.4,11.4h7.7l-1.1,2.2h-8l-1.5,2.5h8.3l-1.1,2.2h-8.6l-1.7,2.8h9l-1.1,2.2h-9.3l-0.4,0.6
	v2.2h8.2l-1.1,2.2h-7.2v2.4h6l-1.1,2.2c-8.9,0-17.8,0-26.8,0l-4.2-8.9l-3.2,3.6v5.3h-6.1V11.4h6.1v8.2l6.4-8.2h8.1l-7.2,8.1l3.9,6.9
	h11.9V24l-7.7-12.6h6.8l4,7.3l4-7.3L181.4,11.4L181.4,11.4z M191.8,6.5c0,0.4,0,0.7,0.1,1.1c0.2,0.8,0.5,1.5,1.1,2.1
	c0,0,0.1,0.1,0.1,0.1c0,0,0.1,0.1,0.1,0.1c0.3,0.3,0.6,0.5,0.9,0.6c1,0.5,2.3,0.5,3.3,0c0.5-0.3,0.9-0.6,1.2-0.9
	c0.6-0.7,1.1-1.7,1.1-3.1c0-0.6-0.1-1.3-0.3-1.8c-0.1-0.3-0.2-0.5-0.4-0.7c0-0.1-0.1-0.1-0.1-0.2c0,0-0.1-0.1-0.1-0.2
	c-0.1-0.1-0.2-0.2-0.2-0.3c0,0-0.1-0.1-0.1-0.1c0,0,0,0-0.1-0.1l-0.2-0.2c-0.7-0.6-1.5-0.9-2.5-0.9c-1.1,0-1.9,0.4-2.7,1.1l-0.1,0.1
	c0,0-0.1,0.1-0.1,0.1c-0.1,0.1-0.2,0.2-0.2,0.3c-0.2,0.2-0.4,0.5-0.5,0.8C191.9,5.3,191.8,5.8,191.8,6.5 M192.3,6.5
	c0-0.5,0.1-1.2,0.3-1.5c0.2-0.5,0.4-0.7,0.7-1.1c0.3-0.3,0.6-0.6,1-0.8c0.4-0.2,0.9-0.3,1.4-0.3c0.6,0,1,0.1,1.5,0.3
	c0.5,0.3,1,0.7,1.3,1.1c0.5,0.7,0.7,1.5,0.7,2.4c0,0.8-0.2,1.6-0.6,2.2l-0.2,0.3c0,0,0,0-0.1,0.1l-0.2,0.2c-0.1,0.1-0.2,0.2-0.4,0.3
	c-1.1,0.9-2.8,0.9-4,0l-0.5-0.4c-0.5-0.6-1-1.4-1-2.7V6.5z M194.2,9.3V3.7h1.5c0.9,0,1.8,0.5,1.8,1.5c0,0.3,0,0.4-0.1,0.7
	c-0.1,0.3-0.4,0.5-0.7,0.7c-0.2,0.1-0.5,0.2-0.5,0.2c0.2,0,0.4,0.3,0.5,0.5c0.2,0.3,0.6,1.3,0.8,1.7l0.2,0.3c-0.2,0-0.7,0-0.9,0
	c0,0,0,0-0.1,0l-0.1-0.3c0-0.1-0.1-0.3-0.2-0.4C196.3,8,196,7,195.4,7c-0.1,0-0.4,0-0.5,0v2.3H194.2z M194.9,4.4c0.1,0,0.3,0,0.4,0
	c0.4,0,0.8,0,1.1,0.2c0.2,0.1,0.2,0.3,0.2,0.7c0,0.2,0,0.4-0.1,0.6c-0.1,0.2-0.4,0.3-0.7,0.4l-0.9,0c0,0,0,0,0-0.1l0-0.4
	C194.9,5.4,194.9,4.8,194.9,4.4 M54.8,36.1h122.7l-1.1,2.2H54.8V36.1z M105.4,1.2c0,0-8.3-1.1-24.2,0.2C63.8,2.7,42.2,6,25.9,12.7
	c-4.5,1.8-20.6,9.1-18.7,16.1c3.2,11.8,37.5,10.1,45.2,9.6c0,0-11.8-0.5-19.5-2.3c-2-0.5-3.7-1-4.8-1.7c-6-3.4-5.7-7.5-2.4-11.2
	c6.5-7.3,23.2-13,31.7-15.3C73.2,3.8,89.2,2.3,105.4,1.2 M61.4,19.9h2.7c1,0,1.6-0.2,2-0.5c0.4-0.4,0.6-0.9,0.6-1.6
	c0-0.6-0.2-1.1-0.6-1.5c-0.4-0.4-1-0.5-2-0.5h-2.7V19.9z M61.4,28.4h3.1c1.1,0,1.8-0.2,2.2-0.6c0.4-0.4,0.7-1,0.7-1.6
	c0-0.6-0.2-1.2-0.6-1.5c-0.4-0.4-1.2-0.6-2.3-0.6h-3.1V28.4z M77.1,11.4h16.4v4.6H83.3v3.4h9.5v4.4h-9.5v4.3h10.5v4.9H77.1V11.4z
	 M96.5,25.9l5.8-0.4c0.1,1,0.4,1.8,0.8,2.3c0.6,0.9,1.5,1.3,2.7,1.3c0.9,0,1.5-0.2,2-0.7c0.5-0.4,0.7-1,0.7-1.6
	c0-0.6-0.2-1.1-0.7-1.5c-0.4-0.4-1.5-0.9-3.1-1.3c-2.7-0.7-4.6-1.5-5.7-2.6c-1.2-1.1-1.7-2.5-1.7-4.2c0-1.1,0.3-2.2,0.9-3.1
	c0.6-1,1.5-1.8,2.7-2.3c1.2-0.6,2.8-0.8,4.9-0.8c2.5,0,4.5,0.5,5.8,1.5c1.3,1,2.1,2.7,2.4,4.9l-5.8,0.4c-0.2-1-0.5-1.7-1-2.1
	c-0.5-0.4-1.2-0.7-2-0.7c-0.7,0-1.2,0.2-1.6,0.5c-0.4,0.3-0.5,0.7-0.5,1.2c0,0.3,0.1,0.6,0.4,0.9c0.3,0.3,1,0.6,2,0.8
	c2.7,0.6,4.6,1.3,5.7,1.9c1.2,0.6,2,1.4,2.5,2.4c0.5,1,0.8,2,0.8,3.2c0,1.4-0.4,2.7-1.1,3.8c-0.7,1.2-1.7,2.1-2.9,2.7
	c-1.3,0.6-2.8,0.9-4.8,0.9c-3.4,0-5.7-0.7-7-2.1C97.4,29.9,96.7,28.1,96.5,25.9 M116.9,25.9l5.8-0.4c0.1,1,0.4,1.8,0.8,2.3
	c0.6,0.9,1.5,1.3,2.7,1.3c0.9,0,1.5-0.2,2-0.7c0.5-0.4,0.7-1,0.7-1.6c0-0.6-0.2-1.1-0.7-1.5c-0.4-0.4-1.5-0.9-3.1-1.3
	c-2.7-0.7-4.6-1.5-5.7-2.6c-1.2-1.1-1.7-2.5-1.7-4.2c0-1.1,0.3-2.2,0.9-3.1c0.6-1,1.5-1.8,2.7-2.3c1.2-0.6,2.8-0.8,4.9-0.8
	c2.5,0,4.5,0.5,5.8,1.5c1.3,1,2.1,2.7,2.4,4.9l-5.8,0.4c-0.2-1-0.5-1.7-1-2.1c-0.5-0.4-1.2-0.7-2-0.7c-0.7,0-1.2,0.2-1.6,0.5
	c-0.4,0.3-0.5,0.7-0.5,1.2c0,0.3,0.1,0.6,0.4,0.9c0.3,0.3,1,0.6,2,0.8c2.7,0.6,4.6,1.3,5.7,1.9c1.2,0.6,2,1.4,2.5,2.4
	c0.5,1,0.8,2,0.8,3.2c0,1.4-0.4,2.7-1.1,3.8c-0.7,1.2-1.7,2.1-2.9,2.7c-1.3,0.6-2.8,0.9-4.8,0.9c-3.4,0-5.7-0.7-7-2.1
	C117.8,29.9,117.1,28.1,116.9,25.9"/>
</svg>
